<svg viewBox="0 0 25 13" fill="none" xmlns="http://www.w3.org/2000/svg">
<path d="M23.9114 4.68949C22.4699 5.16571 21.9899 5.6458 21.5137 7.08716C21.4745 7.20566 21.307 7.20566 21.2678 7.08716C20.7916 5.64572 20.3115 5.16573 18.8701 4.68949C18.7516 4.65031 18.7516 4.48275 18.8701 4.44357C20.3116 3.96735 20.7916 3.48726 21.2678 2.0459C21.307 1.92741 21.4745 1.92741 21.5137 2.0459C21.9899 3.48734 22.47 3.96734 23.9114 4.44357C24.0299 4.48276 24.0299 4.65032 23.9114 4.68949Z" fill="#030713"/>
<path d="M24.956 2.32342C24.2355 2.56138 23.9953 2.80156 23.757 3.52242C23.7376 3.58167 23.6538 3.58167 23.6341 3.52242C23.3961 2.80187 23.1559 2.56171 22.4351 2.32342C22.3758 2.30399 22.3758 2.22022 22.4351 2.20047C23.1556 1.96251 23.3958 1.72233 23.6341 1.00147C23.6535 0.942219 23.7373 0.942219 23.757 1.00147C23.995 1.72202 24.2352 1.96218 24.956 2.20047C25.0153 2.2199 25.0153 2.30367 24.956 2.32342Z" fill="#030713"/>
<path d="M5.91888 11.1093C8.73582 11.1093 11.0194 8.82567 11.0194 6.00873C11.0194 3.19179 8.73582 0.908203 5.91888 0.908203C3.10194 0.908203 0.818359 3.19179 0.818359 6.00873C0.818359 8.82567 3.10194 11.1093 5.91888 11.1093Z" stroke="#030713" stroke-width="1.22594" stroke-miterlimit="10"/>
<path d="M19.9198 9.68555C18.0295 11.7744 14.8042 11.9352 12.7153 10.0448C10.6264 8.15451 10.4657 4.92918 12.356 2.84031C14.2464 0.751443 17.4717 0.590712 19.5606 2.48103" stroke="#030713" stroke-width="1.22594" stroke-miterlimit="10" stroke-linecap="round"/>
<path d="M10.8525 8.01562V11.8082" stroke="#030713" stroke-width="1.22594" stroke-miterlimit="10" stroke-linecap="round"/>
</svg>
