<svg width="66" height="33" viewBox="0 0 66 33" fill="none" xmlns="http://www.w3.org/2000/svg">
<path d="M62.2945 12.6952C58.5391 13.9359 57.2885 15.1867 56.0477 18.942C55.9457 19.2507 55.5091 19.2507 55.407 18.942C54.1663 15.1865 52.9155 13.936 49.1603 12.6952C48.8515 12.5931 48.8515 12.1566 49.1603 12.0545C52.9157 10.8138 54.1663 9.56297 55.407 5.80772C55.5091 5.49899 55.9457 5.49899 56.0477 5.80772C57.2885 9.56318 58.5393 10.8137 62.2945 12.0545C62.6033 12.1566 62.6033 12.5931 62.2945 12.6952Z" fill="#FFFFF4"/>
<path d="M65.0187 6.52772C63.1414 7.14768 62.5157 7.77344 61.8949 9.65154C61.8443 9.8059 61.626 9.8059 61.5746 9.65154C60.9546 7.77425 60.3288 7.14853 58.4507 6.52772C58.2964 6.47709 58.2964 6.25883 58.4507 6.20737C60.328 5.5874 60.9537 4.96164 61.5746 3.08355C61.6252 2.92918 61.8434 2.92918 61.8949 3.08355C62.5149 4.96084 63.1406 5.58656 65.0187 6.20737C65.1731 6.25799 65.1731 6.47626 65.0187 6.52772Z" fill="#FFFFF4"/>
<path d="M15.4186 29.4172C22.7577 29.4172 28.7073 23.4677 28.7073 16.1285C28.7073 8.78939 22.7577 2.83984 15.4186 2.83984C8.07943 2.83984 2.12988 8.78939 2.12988 16.1285C2.12988 23.4677 8.07943 29.4172 15.4186 29.4172Z" stroke="#FFFFF4" stroke-width="3.19402" stroke-miterlimit="10"/>
<path d="M51.8966 25.7066C46.9716 31.1489 38.5685 31.5676 33.1262 26.6427C27.684 21.7177 27.2652 13.3146 32.1902 7.87232C37.1151 2.43007 45.5183 2.01131 50.9605 6.93626" stroke="#FFFFF4" stroke-width="3.19402" stroke-miterlimit="10" stroke-linecap="round"/>
<path d="M28.2744 21.3555V31.2366" stroke="#FFFFF4" stroke-width="3.19402" stroke-miterlimit="10" stroke-linecap="round"/>
</svg>
